<svg id="Layer_1" data-name="Layer 1" xmlns="http://www.w3.org/2000/svg" width="11.43" height="15.24" viewBox="0 0 11.43 15.24"><defs><style>.cls-1{fill:#8a8a8a;}</style></defs><title>branch</title><path class="cls-1" d="M3,.13A1.91,1.91,0,0,0,1.1,2,1.92,1.92,0,0,0,2.38,3.82v7.86A1.9,1.9,0,0,0,3,15.37a1.9,1.9,0,0,0,.68-3.67,1.84,1.84,0,0,1,.87-1.49A7.79,7.79,0,0,1,7,9.38,7.89,7.89,0,0,0,9.8,8.33a3.55,3.55,0,0,0,1.45-2.6,1.91,1.91,0,1,0-1.27,0,2,2,0,0,1-.9,1.58,7.28,7.28,0,0,1-2.4.86,8,8,0,0,0-2.84,1l-.2.16V3.82A1.92,1.92,0,0,0,4.92,2,1.92,1.92,0,0,0,3,.13ZM3,1.4A.62.62,0,0,1,3.64,2,.63.63,0,1,1,2.38,2,.62.62,0,0,1,3,1.4Zm7.62,1.9a.64.64,0,1,1,0,1.27.64.64,0,0,1,0-1.27ZM3,12.83a.64.64,0,1,1-.63.63A.62.62,0,0,1,3,12.83Z" transform="translate(-1.1 -0.13)"/></svg>