<svg id="Layer_1" data-name="Layer 1" xmlns="http://www.w3.org/2000/svg" width="11.65" height="15.35" viewBox="0 0 11.65 15.35"><defs><style>.cls-1{fill:#8a8a8a;}</style></defs><title>comment</title><path class="cls-1" d="M12.87,4.21A4.72,4.72,0,0,1,12.46,6c-.68,1.61-1.34,3.23-2,4.84a.56.56,0,0,1-.46.4.54.54,0,0,1-.6-.44.55.55,0,0,1,0-.31c.24-.61.5-1.21.75-1.81l1.35-3.28A3,3,0,1,0,6,3L2.44,11.52a2,2,0,0,0,3.72,1.54c1-2.46,2.06-4.94,3.07-7.41a1,1,0,1,0-1.78-.86s0,.07,0,.1l-2.77,6.7A.55.55,0,0,1,4.2,12a.52.52,0,0,1-.62-.42.56.56,0,0,1,0-.31c.13-.34.29-.69.43-1.05L6.44,4.48a2.07,2.07,0,1,1,3.83,1.57L7.86,11.92c-.24.56-.46,1.14-.71,1.69a3.09,3.09,0,0,1-5.86-.69,3.16,3.16,0,0,1,.17-1.85C2.63,8.27,3.77,5.46,5,2.65A4,4,0,0,1,8.3.11a4.07,4.07,0,0,1,4.46,3.24C12.81,3.65,12.83,3.93,12.87,4.21Z" transform="translate(-1.22 -0.08)"/></svg>