<svg id="Layer_1" data-name="Layer 1" xmlns="http://www.w3.org/2000/svg" width="60.1" height="60.1" viewBox="0 0 60.1 60.1"><defs><style>.cls-1{fill:#ffc000;}.cls-2{fill:#fff;}</style></defs><title>custom_questionbtn_btn</title><rect class="cls-1" width="60.1" height="60.1" rx="9.8" ry="9.8"/><path class="cls-2" d="M43.86,16.26a7,7,0,0,0-9.9,0L15.79,34.42a.85.85,0,0,0-.25.52l-1.35,10a.89.89,0,0,0,.26.76.91.91,0,0,0,.64.27h.12l6-.82a.9.9,0,0,0,.78-1,.92.92,0,0,0-1-.79L16.16,44l.94-7,7.31,7.32a.91.91,0,0,0,1.29,0L43.86,26.17a7,7,0,0,0,0-9.91Zm-9.55,2.23,3,3.05L20.78,38.12l-3.05-3Zm-9.25,23.9-3-3L38.66,22.84l3,3ZM42.91,24.51l-7.3-7.29a5.18,5.18,0,0,1,7.3,7.29Z" transform="translate(0 -0.03)"/></svg>