<svg id="Layer_1" data-name="Layer 1" xmlns="http://www.w3.org/2000/svg" width="13.69" height="15.4" viewBox="0 0 13.69 15.4"><defs><style>.cls-1{fill:#8a8a8a;fill-rule:evenodd;}</style></defs><title>file</title><path id="Forma_1" data-name="Forma 1" class="cls-1" d="M9.73,6.72a.59.59,0,0,0-.59-.59H3a.6.6,0,0,0-.6.6.6.6,0,0,0,.6.6H9.14A.61.61,0,0,0,9.73,6.72ZM3,8.53a.6.6,0,0,0,0,1.2H6.73a.6.6,0,1,0,0-1.2Zm1.4,5.77h-2a1.2,1.2,0,0,1-1.2-1.2V2.51a1.2,1.2,0,0,1,1.2-1.2H9.73a1.2,1.2,0,0,1,1.2,1.2v3.7a.6.6,0,0,0,.52.67.61.61,0,0,0,.67-.52V2.51A2.4,2.4,0,0,0,9.73.11H2.4A2.39,2.39,0,0,0,0,2.51H0V13.1A2.4,2.4,0,0,0,2.4,15.51h2a.61.61,0,0,0,0-1.21Zm8.79-5.48a1.77,1.77,0,0,0-2.52,0h0L7.37,12.11a.64.64,0,0,0-.15.25L6.5,14.73a.63.63,0,0,0,.15.6.58.58,0,0,0,.43.18l.16,0,2.4-.67a.57.57,0,0,0,.27-.16l3.27-3.29A1.83,1.83,0,0,0,13.18,8.82Zm-4,4.87L8,14l.35-1.18,2.2-2.22.85.85Zm3.16-3.17-.11.11-.85-.85.12-.11a.58.58,0,0,1,.83,0h0a.61.61,0,0,1,0,.85ZM9.14,3.71H3A.61.61,0,0,0,3,4.92H9.14a.6.6,0,0,0,0-1.2Z" transform="translate(-0.01 -0.11)"/></svg>