<svg height="40" viewBox="0 0 40 40" width="40" xmlns="http://www.w3.org/2000/svg"><g fill="none"><circle cx="20" cy="20" fill="#d5ddeb" r="20"/><path d="m19.5 8c-.2761424 0-.5-.27982203-.5-.625v-3.75c0-.34517797.2238576-.625.5-.625s.5.27982203.5.625v3.75c0 .34517797-.2238576.625-.5.625z" fill="#7c89ad"/><path d="m17.5900848 21.1178929-8.28151915-9.96534c-.43881485-.5199089-.40600412-1.28923233.07548466-1.76991248s1.25106509-.51239616 1.77049419-.07296614l9.9654215 8.27668532c1.0437723.8902421 1.1779754 2.4538651.3011593 3.5088592-.876816 1.054994-2.4389804 1.2095086-3.5055858.3467396-.1177256-.098332-.2266252-.2067668-.3254547-.3240655z" fill="#f66"/></g></svg>