<?xml version="1.0" encoding="utf-8"?>
<!-- Generator: Adobe Illustrator 22.0.1, SVG Export Plug-In . SVG Version: 6.00 Build 0)  -->
<svg version="1.1" id="Layer_1" xmlns="http://www.w3.org/2000/svg" xmlns:xlink="http://www.w3.org/1999/xlink" x="0px" y="0px"
	 width="396px" height="93px" viewBox="0 0 396 93" style="enable-background:new 0 0 396 93;" xml:space="preserve">
<style type="text/css">
	.st0{fill:#FFFFFF;}
</style>
<g>
	<path class="st0" d="M91.3,18.8H105V3.4H91.3V18.8z"/>
	<path class="st0" d="M91.3,71.8H105V23.9H91.3V71.8z"/>
	<path class="st0" d="M139.8,71.4v-31c0-2.1-1-3.4-3.4-3.4c-2.5,0-7.2,1.7-10.2,3.4v31h-14V24.5h10.4l1.5,3.6
		c5.8-2.8,13.4-4.5,18.9-4.5c4.2,0,7,1.6,8.7,4.5c5.3-2.6,12.4-4.5,19-4.5c8.1,0,10.9,6,10.9,15v32.8h-14v-31c0-2.1-1-3.4-3.4-3.4
		c-2.5,0-7.2,1.7-10.2,3.4v31H139.8z M202.3,59.2c2.4,0.6,6,1.2,8.9,1.2c3.7,0,5.1-2.2,5.1-5.3V40.9c0-3.3-1.4-5.3-5.1-5.3
		c-3.2,0-6.9,1.9-8.9,3.7V59.2z M230.3,55c0,11.1-4.9,17.3-15.9,17.3c-3.9,0-8.8-0.6-12.1-1.3v21.3h-14V24.5h11l1.5,3.8
		c3.3-2.1,9.4-4.7,14.6-4.7c9.6,0,15,5.9,15,17.3L230.3,55z"/>
	<path class="st0" d="M235.8,71.4v-68h14v68H235.8z"/>
	<path class="st0" d="M256.5,18.2h14V3.4h-14V18.2z"/>
	<g>
		<path class="st0" d="M256.7,71.4h14V24.5h-14V71.4z"/>
		<path class="st0" d="M306.6,15.6c-1.9-0.4-4.6-0.7-6.2-0.7c-4.5,0-4.8,1.9-4.8,5v5.5h11.2l-1,11.4h-10.2v34.6h-14V36.8h-7.2V25.5
			h7.2v-7c0-9.6,4.6-15,16-15c4,0,6.9,0.6,10.7,1.3L306.6,15.6z"/>
		<path class="st0" d="M321.2,90.4l5.5-19h-4.5l-14.6-46.9h14.2l9.6,33.2l9.6-33.2h14.2l-14.9,46.9l-6,19H321.2z"/>
		<path class="st0" d="M381.2,54.5h-6.7c-3,0-4.2,0.8-4.2,3.4c0,2.6,1.1,3.7,3.8,3.7c2.9,0,5-0.7,7.1-1.6L381.2,54.5z M383.8,71.4
			l-1-3c-5.4,3-10.3,3.9-13.5,3.9c-8.8,0-12.3-6.3-12.3-14.3c0-9.4,4.4-13.2,14.1-13.2h10.2v-3.6c0-4.8-0.9-6.5-8.4-6.5
			c-4.2,0-8.4,0.5-12.8,1.3l-1.8-10.4c4.5-1.3,11.6-2.3,17-2.3c16.4,0,20,4.9,20,17.9v30H383.8z"/>
	</g>
	<path class="st0" d="M83.1,35c-4.6-0.8-10.4-1.4-14.5-1.4c-4.5,0-5.6,1.1-5.6,3.2c0,2.9,0.4,3.3,6.7,4.6
		c10.7,2.2,14.3,4.3,15.5,8.8c0.4-2.3,0.6-4.6,0.6-7c0-4.6-0.7-9-2.1-13.1L83.1,35z"/>
	<path class="st0" d="M66.3,72c-5.7,0-13.9-1.3-19.1-2.8l2.5-10.4c4.3,1.2,10,2.1,15.9,2.1c4.6,0,5.4-1.2,5.4-4c0-3-0.1-3.4-8.5-5.3
		c-12.7-2.8-13.9-6-13.9-14.8c0-10.1,4.3-14.3,20.1-14.3c3,0,8,0.3,12.3,0.9C73.6,10,59.4,0.8,42.9,0.8C19.2,0.8,0,19.8,0,43.3
		c0,23.5,19.2,42.5,42.9,42.5c12.9,0,24.5-5.7,32.4-14.6C72.8,71.7,69.9,72,66.3,72"/>
</g>
</svg>
