<?xml version="1.0" encoding="utf-8"?>
<!-- Generator: Adobe Illustrator 22.0.1, SVG Export Plug-In . SVG Version: 6.00 Build 0)  -->
<svg version="1.1" id="Layer_1" xmlns="http://www.w3.org/2000/svg" xmlns:xlink="http://www.w3.org/1999/xlink" x="0px" y="0px"
	 viewBox="0 0 69.5 77.2" style="enable-background:new 0 0 69.5 77.2;" xml:space="preserve">
<style type="text/css">
	.st0{fill:#207245;}
	.st1{fill:#FFFFFF;}
</style>
<title>pdf</title>
<path class="st0" d="M36.5,5.2H41v6.1c7.7,0,15.4,0,23,0c1.3,0.1,2.7,0,3.8,0.7c0.8,1.1,0.7,2.6,0.8,3.9c0,13.3,0,26.6,0,39.9
	c0,2.2,0.2,4.5-0.3,6.7c-0.3,1.6-2.2,1.6-3.5,1.7c-7.9,0-15.9,0-23.8,0v6.9h-4.8C24.6,69,12.9,67,1.2,65V11.3
	C13,9.3,24.7,7.2,36.5,5.2z"/>
<path class="st1" d="M41,13.6h25.3v48.3H41v-4.6h6.1v-5.4H41v-3.1h6.1v-5.4H41v-3.1h6.1v-5.4H41V32h6.1v-5.4H41v-3.1h6.1v-5.4H41
	V13.6z"/>
<path class="st0" d="M50.2,18.2H61v5.4H50.2V18.2z"/>
<path class="st1" d="M23.9,25.4c1.7-0.1,3.5-0.2,5.2-0.3c-2,4.2-4.1,8.4-6.2,12.6c2.1,4.3,4.3,8.6,6.4,12.9
	c-1.8-0.1-3.7-0.2-5.5-0.4c-1.3-3.2-2.9-6.3-3.8-9.6c-1,3.1-2.5,6-3.7,9.1c-1.7,0-3.4-0.1-5-0.2c2-3.9,3.9-7.7,5.9-11.6
	c-1.7-3.9-3.6-7.8-5.4-11.7c1.7-0.1,3.4-0.2,5.1-0.3c1.1,3,2.4,6,3.3,9C21.1,31.6,22.6,28.5,23.9,25.4L23.9,25.4z"/>
<path class="st0" d="M50.2,26.6H61V32H50.2V26.6z M50.2,35.1H61v5.4H50.2V35.1z M50.2,43.5H61v5.4H50.2V43.5z M50.2,51.9H61v5.4
	H50.2V51.9z"/>
</svg>
