<?xml version="1.0" encoding="utf-8"?>
<!-- Generator: Adobe Illustrator 22.0.1, SVG Export Plug-In . SVG Version: 6.00 Build 0)  -->
<svg version="1.1" id="Layer_1" xmlns="http://www.w3.org/2000/svg" xmlns:xlink="http://www.w3.org/1999/xlink" x="0px" y="0px"
	 viewBox="0 0 69.5 77.2" style="enable-background:new 0 0 69.5 77.2;" xml:space="preserve">
<style type="text/css">
	.st0{fill:#2A5699;}
	.st1{fill:#FDFEFE;}
	.st2{fill:#FDFDFE;}
</style>
<title>pdf</title>
<g>
	<path class="st0" d="M69.9,20.4c0,14.8,0,29.6,0,44.4c-0.1,0.2-0.1,0.4-0.1,0.6c-0.2,1-0.5,1.9-1.7,2.2c0,0-0.1,0-0.1,0
		c-1.1,0.3-2.3,0.3-3.5,0.3c-7.6,0-15.3,0-22.9,0c-0.3,0-0.3,0.1-0.3,0.3c0,1.9,0,3.8,0,5.7c0,0.3-0.1,0.3-0.3,0.3
		c-1.4,0-2.8,0-4.2,0c-0.2,0-0.4,0-0.6,0c-2.5-0.4-5-0.9-7.6-1.4c-4.7-0.8-9.4-1.6-14-2.5C9.7,69.6,5,68.8,0.2,67.9
		c-0.3,0-0.4-0.1-0.4-0.4c0-18.3,0-36.7,0-55c0-0.3,0.1-0.4,0.4-0.4c3.4-0.6,6.9-1.2,10.3-1.8c3.8-0.7,7.6-1.3,11.4-2
		c4.2-0.7,8.3-1.5,12.5-2.2C35.2,6,36,5.8,36.8,5.8c1.4,0,2.7,0,4.1,0c0.3,0,0.4,0,0.4,0.4c0,1.9,0,3.8,0,5.7c0,0.3,0.1,0.3,0.3,0.3
		c1,0,2,0,3,0c5.5,0,11,0,16.4,0c2,0,3.9,0.1,5.9,0c1.7,0,2.8,0.9,3,2.5C69.8,16.6,69.9,18.5,69.9,20.4z M67.5,40
		c0-8.4,0-16.8,0-25.1c0-0.2,0-0.4-0.3-0.4c-8.6,0-17.1,0-25.7,0c-0.3,0-0.3,0.1-0.3,0.3c0,1.6,0,3.3,0,4.9c0,0.3,0.1,0.4,0.3,0.4
		c2.2,0,4.4,0,6.6,0c4.5,0,8.9,0,13.4,0c0.3,0,0.4,0.1,0.4,0.4c0,0.8,0,1.6,0,2.4c0,0.5,0.1,0.5-0.5,0.5c-6.6,0-13.3,0-19.9,0
		c-0.3,0-0.4,0.1-0.4,0.3c0,1.1,0,2.1,0,3.2c0,0.4,0,0.4,0.4,0.4c6.6,0,13.3,0,19.9,0c0.3,0,0.4,0.1,0.4,0.3c0,0.8,0,1.6,0,2.4
		c0,0.5,0.1,0.4-0.4,0.4c-6.6,0-13.3,0-19.9,0c-0.3,0-0.4,0.1-0.4,0.4c0,1.1,0,2.1,0,3.2c0,0.5-0.1,0.4,0.4,0.4c0.1,0,0.1,0,0.2,0
		c6.6,0,13.1,0,19.7,0c0.3,0,0.4,0.1,0.4,0.3c0,0.8,0,1.6,0,2.4c0,0.4-0.1,0.4-0.4,0.4c-6.6,0-13.3,0-19.9,0c-0.3,0-0.4,0.1-0.4,0.3
		c0,1.1,0,2.2,0,3.3c0,0.3,0.1,0.4,0.3,0.4c1.7,0,3.4,0,5.2,0c4.9,0,9.9,0,14.8,0c0.3,0,0.4,0.1,0.4,0.4c0,0.8,0,1.6,0,2.4
		c0,0.5,0.1,0.4-0.4,0.4c-6.6,0-13.3,0-19.9,0c-0.3,0-0.4,0.1-0.4,0.4c0,1.1,0,2.1,0,3.2c0,0.4,0,0.4,0.4,0.4c6.6,0,13.3,0,19.9,0
		c0.3,0,0.4,0.1,0.4,0.3c0,0.8,0,1.6,0,2.4c0,0.5,0.1,0.4-0.4,0.4c-6.6,0-13.3,0-19.9,0c-0.3,0-0.4,0.1-0.4,0.4c0,1.1,0,2.2,0,3.3
		c0,0.3,0.1,0.4,0.4,0.4c0.1,0,0.2,0,0.3,0c6.6,0,13.1,0,19.7,0c0.3,0,0.4,0.1,0.4,0.3c0,0.8,0,1.6,0,2.5c0,0.3-0.1,0.4-0.4,0.4
		c-6.6,0-13.3,0-19.9,0c-0.3,0-0.4,0.1-0.4,0.4c0,1.9,0,3.7,0,5.6c0,0.3,0.1,0.4,0.4,0.4c8.5,0,17,0,25.5,0c0.3,0,0.4-0.1,0.4-0.4
		C67.5,56.7,67.5,48.4,67.5,40z M12.9,44.1C12.9,44,12.9,44,12.9,44.1c-0.1-0.6-0.2-1.1-0.3-1.7c-0.4-2.5-0.8-5.1-1.2-7.6
		c-0.3-1.8-0.6-3.6-0.9-5.4c0-0.1,0-0.3-0.3-0.3c-1.2,0.1-2.4,0.1-3.7,0.2c-0.2,0-0.2,0.1-0.2,0.2c0.3,1.7,0.6,3.4,1,5.1
		C8,38,8.7,41.5,9.4,45c0.3,1.6,0.6,3.2,1,4.9c0,0.1,0,0.3,0.2,0.3c1.4,0.1,2.7,0.2,4.1,0.3c0.2,0,0.3,0,0.3-0.3
		c0.2-0.9,0.4-1.7,0.5-2.6c0.8-3.6,1.6-7.1,2.3-10.7c0.1-0.5,0.2-1.1,0.3-1.7c0.3,1.6,0.6,3.1,0.9,4.7c0.8,3.6,1.5,7.2,2.3,10.8
		c0,0.1,0,0.3,0.2,0.2c0.8,0,1.6,0.1,2.5,0.2c0.6,0.1,1.3,0.1,1.9-0.1c0.2-0.1,0.4-0.2,0.4-0.4c0.4-1.7,0.8-3.4,1.2-5.1
		c1.1-4.7,2.1-9.5,3.2-14.2c0.3-1.2,0.5-2.3,0.8-3.5c-0.2,0-0.3,0-0.4,0c-1.3,0.1-2.7,0.1-4,0.2c-0.3,0-0.4,0.1-0.4,0.4
		c-0.2,1.2-0.4,2.4-0.6,3.7c-0.6,3.3-1.1,6.6-1.7,9.9c-0.1,0.8-0.3,1.6-0.4,2.4c-0.1-0.1-0.1-0.1-0.1-0.2c-0.5-2.5-1-5-1.6-7.5
		c-0.5-2.7-1.1-5.3-1.6-8c0-0.2-0.1-0.3-0.3-0.2c-1.4,0.1-2.7,0.1-4.1,0.2c-0.2,0-0.3,0.1-0.3,0.3c-0.9,4.4-1.9,8.7-2.8,13.1
		C13.2,42.7,13.1,43.4,12.9,44.1z"/>
	<path class="st1" d="M69.9,14.7c-0.2-1.6-1.4-2.6-3-2.5c-2,0-3.9,0-5.9,0c-5.5,0-11,0-16.4,0c-1,0-2,0-3,0c-0.3,0-0.3-0.1-0.3-0.3
		c0-1.9,0-3.8,0-5.7c0-0.3-0.1-0.4-0.4-0.4c-1.4,0-2.7,0-4.1,0c-0.8,0-1.6,0.2-2.4,0.4c-4.2,0.7-8.3,1.5-12.5,2.2
		c-3.8,0.7-7.6,1.3-11.4,2c-3.4,0.6-6.9,1.2-10.3,1.8c-0.3,0-0.4,0.1-0.4,0.4c0,18.3,0,36.7,0,55c0,0.3,0.1,0.4,0.4,0.4
		c4.8,0.8,9.5,1.6,14.3,2.5c4.7,0.8,9.4,1.6,14,2.5c2.5,0.4,5,0.9,7.6,1.4c0.2,0,0.4,0,0.6,0c1.4,0,2.8,0,4.2,0
		c0.3,0,0.3-0.1,0.3-0.3c0-1.9,0-3.8,0-5.7c0-0.3,0.1-0.3,0.3-0.3c7.6,0,15.3,0,22.9,0c1.2,0,2.3,0,3.5-0.3c0,0,0.1,0,0.1,0
		c1.2-0.2,1.5-1.1,1.7-2.2c0-0.2,0-0.4,0.1-0.6c0,3.2,0,6.3,0,9.5c0,0.2,0,0.2-0.2,0.2c-23.2,0-46.4,0-69.7,0
		c-0.2,0-0.3-0.1-0.3-0.3c0-22.8,0-45.6,0-68.4c0-0.2,0-0.3,0.3-0.3c23.2,0,46.4,0,69.7,0c0.2,0,0.2,0,0.2,0.2
		C69.9,8.9,69.9,11.8,69.9,14.7C69.9,14.7,69.9,14.7,69.9,14.7z"/>
	<path class="st2" d="M69.9,14.7C69.9,14.7,69.9,14.7,69.9,14.7c0.1,1.9,0.1,3.8,0.1,5.7C69.9,18.5,69.8,16.6,69.9,14.7z"/>
	<path class="st2" d="M67.5,40c0,8.4,0,16.7,0,25.1c0,0.3-0.1,0.4-0.4,0.4c-8.5,0-17,0-25.5,0c-0.3,0-0.4-0.1-0.4-0.4
		c0-1.9,0-3.7,0-5.6c0-0.3,0.1-0.4,0.4-0.4c6.6,0,13.3,0,19.9,0c0.3,0,0.4-0.1,0.4-0.4c0-0.8,0-1.6,0-2.5c0-0.3-0.1-0.3-0.4-0.3
		c-6.6,0-13.1,0-19.7,0c-0.1,0-0.2,0-0.3,0c-0.3,0-0.4-0.1-0.4-0.4c0-1.1,0-2.2,0-3.3c0-0.3,0.1-0.4,0.4-0.4c6.6,0,13.3,0,19.9,0
		c0.5,0,0.4,0.1,0.4-0.4c0-0.8,0-1.6,0-2.4c0-0.3-0.1-0.3-0.4-0.3c-6.6,0-13.3,0-19.9,0c-0.4,0-0.4,0-0.4-0.4c0-1.1,0-2.1,0-3.2
		c0-0.3,0.1-0.4,0.4-0.4c6.6,0,13.3,0,19.9,0c0.5,0,0.4,0.1,0.4-0.4c0-0.8,0-1.6,0-2.4c0-0.3-0.1-0.4-0.4-0.4c-4.9,0-9.9,0-14.8,0
		c-1.7,0-3.4,0-5.2,0c-0.3,0-0.3-0.1-0.3-0.4c0-1.1,0-2.2,0-3.3c0-0.3,0.1-0.3,0.4-0.3c6.6,0,13.3,0,19.9,0c0.3,0,0.5-0.1,0.4-0.4
		c0-0.8,0-1.6,0-2.4c0-0.3-0.1-0.3-0.4-0.3c-6.6,0-13.1,0-19.7,0c-0.1,0-0.1,0-0.2,0c-0.5,0-0.4,0.1-0.4-0.4c0-1.1,0-2.1,0-3.2
		c0-0.3,0.1-0.4,0.4-0.4c6.6,0,13.3,0,19.9,0c0.5,0,0.4,0.1,0.4-0.4c0-0.8,0-1.6,0-2.4c0-0.3-0.1-0.3-0.4-0.3c-6.6,0-13.3,0-19.9,0
		c-0.4,0-0.4,0-0.4-0.4c0-1.1,0-2.1,0-3.2c0-0.3,0.1-0.3,0.4-0.3c6.6,0,13.3,0,19.9,0c0.5,0,0.5,0.1,0.5-0.5c0-0.8,0-1.6,0-2.4
		c0-0.3-0.1-0.4-0.4-0.4c-4.5,0-8.9,0-13.4,0c-2.2,0-4.4,0-6.6,0c-0.3,0-0.3-0.1-0.3-0.4c0-1.6,0-3.3,0-4.9c0-0.2,0.1-0.3,0.3-0.3
		c8.6,0,17.1,0,25.7,0c0.3,0,0.3,0.2,0.3,0.4C67.5,23.3,67.5,31.7,67.5,40z"/>
	<path class="st2" d="M12.9,44.1c0.2-0.7,0.3-1.4,0.5-2.1c0.9-4.4,1.9-8.7,2.8-13.1c0-0.2,0.1-0.3,0.3-0.3c1.4-0.1,2.7-0.1,4.1-0.2
		c0.2,0,0.2,0.1,0.3,0.2c0.5,2.7,1.1,5.3,1.6,8c0.5,2.5,1,5,1.6,7.5c0,0.1,0,0.1,0.1,0.2c0.1-0.8,0.3-1.6,0.4-2.4
		c0.6-3.3,1.1-6.6,1.7-9.9c0.2-1.2,0.4-2.4,0.6-3.7c0-0.3,0.1-0.4,0.4-0.4c1.3,0,2.7-0.1,4-0.2c0.1,0,0.3,0,0.4,0
		c-0.3,1.2-0.5,2.4-0.8,3.5c-1.1,4.7-2.1,9.5-3.2,14.2c-0.4,1.7-0.8,3.4-1.2,5.1c-0.1,0.3-0.2,0.4-0.4,0.4c-0.6,0.2-1.3,0.2-1.9,0.1
		c-0.8-0.1-1.6-0.2-2.5-0.2c-0.2,0-0.2-0.1-0.2-0.2c-0.8-3.6-1.5-7.2-2.3-10.8c-0.3-1.5-0.6-3-0.9-4.7c-0.1,0.6-0.2,1.2-0.3,1.7
		c-0.7,3.6-1.5,7.2-2.3,10.7c-0.2,0.9-0.4,1.7-0.5,2.6c0,0.2-0.1,0.3-0.3,0.3c-1.4-0.1-2.7-0.2-4.1-0.3c-0.2,0-0.2-0.1-0.2-0.3
		c-0.3-1.6-0.6-3.2-1-4.9C8.7,41.5,8,38,7.3,34.5c-0.3-1.7-0.6-3.4-1-5.1c0-0.2,0-0.2,0.2-0.2c1.2,0,2.4-0.1,3.7-0.2
		c0.3,0,0.2,0.2,0.3,0.3c0.3,1.8,0.6,3.6,0.9,5.4c0.4,2.5,0.8,5.1,1.2,7.6C12.7,42.9,12.8,43.5,12.9,44.1C12.9,44,12.9,44,12.9,44.1
		z"/>
</g>
</svg>
