<?xml version="1.0" encoding="utf-8"?>
<!-- Generator: Adobe Illustrator 22.0.1, SVG Export Plug-In . SVG Version: 6.00 Build 0)  -->
<svg version="1.1" id="Layer_1" xmlns="http://www.w3.org/2000/svg" xmlns:xlink="http://www.w3.org/1999/xlink" x="0px" y="0px"
	 viewBox="0 0 59.1 77.2" style="enable-background:new 0 0 59.1 77.2;" xml:space="preserve">
<style type="text/css">
	.st0{fill:#CA0606;}
	.st1{fill:#FA8C8C;}
	.st2{fill:#FFFFFF;}
</style>
<title>pdf</title>
<g>
	<g>
		<path class="st0" d="M6.1,0.4h31.6l21.1,20.1v50.7c0,3.4-2.7,6.1-6.1,6.1h0H6.1c-3.4,0-6.1-2.7-6.1-6.1c0,0,0,0,0,0V6.5
			C0,3.1,2.7,0.4,6.1,0.4C6.1,0.4,6.1,0.4,6.1,0.4z"/>
	</g>
	<path class="st1" d="M58.8,22.2H43.2c-4.2,0-6.1-1.9-6.2-6.1c0-4.9,0-9.8,0-14.7c0-0.3,0-0.6,0-0.9c0.5,0,0.9,0,1.4,0
		c0.8-0.1,1.5,0.2,2,0.8C45.8,6.6,51.2,12,56.6,17.4c0.8,0.8,1.5,1.5,2.3,2.2L58.8,22.2z"/>
	<g>
		<path class="st2" d="M20,37c-1.4-1-3.1-1.5-4.8-1.4c-1.5,0-2.9,0.1-4.4,0.3L10.4,36v16.1h3.8v-5.7c0.3,0,0.6,0,0.8,0
			c1.9,0.1,3.8-0.5,5.2-1.8c1-1,1.5-2.4,1.5-3.8C21.7,39.3,21.1,38,20,37z M17.9,40.8c0,2-1.8,2.3-2.9,2.3c-0.3,0-0.6,0-0.8,0v-4.4
			c0.4,0,0.7-0.1,1.1-0.1C17.6,38.7,17.9,39.9,17.9,40.8z"/>
		<path class="st2" d="M34.6,37.5c-1.5-1.3-3.7-1.9-6.6-1.9c-1.5,0-3,0.1-4.5,0.3L23.1,36l0,16l0.4,0.1c1.2,0.1,2.4,0.2,3.6,0.2
			c3.2,0,5.9-0.7,7.5-2.2c1.7-1.7,2.7-4,2.5-6.4C37.3,41.3,36.4,39,34.6,37.5z M33.2,43.6c0,3.5-1.8,5.4-5.3,5.4c-0.3,0-0.7,0-1,0
			l0-10.1c0.5-0.1,0.9-0.1,1.4-0.1C31.5,38.8,33.2,40.5,33.2,43.6z"/>
		<polygon class="st2" points="48.4,39.1 48.4,35.8 38.6,35.8 38.6,52.1 42.4,52.1 42.4,45.6 48.1,45.6 48.1,42.3 42.4,42.3 
			42.4,39.1 		"/>
	</g>
</g>
</svg>
