<svg id="Layer_1" data-name="Layer 1" xmlns="http://www.w3.org/2000/svg" width="60.1" height="60.1" viewBox="0 0 60.1 60.1"><defs><style>.cls-1{fill:#ffc000;}.cls-2{fill:#fff;}</style></defs><title>simplifya_custom_btn</title><rect class="cls-1" width="60.1" height="60.1" rx="9.8" ry="9.8"/><path class="cls-2" d="M35.19,19.5l-.07,1.07a30,30,0,0,0-4.54-.51c-.84,0-2-.18-2.74.38a.9.9,0,0,0,.07,1.43,2.43,2.43,0,0,0,1.14.36c1.87.2,6.07.82,6.39,3.44a13.47,13.47,0,0,0,.25-2.56A13.06,13.06,0,0,0,35.19,19.5Z" transform="translate(0 -0.03)"/><path class="cls-2" d="M23.81,31.47V28.06s7.8,1.43,7.77-.52c0,0,.2-1-1.61-1.26a12.75,12.75,0,0,1-4.48-1.13,3.85,3.85,0,0,1-2-3.32s-.5-5.67,6.31-5.43c0,0,3.43.34,4.39.6a13.29,13.29,0,1,0-1.82,14.88C31.57,32.14,29.63,32.64,23.81,31.47Z" transform="translate(0 -0.03)"/><path class="cls-2" d="M48.13,26.4a5.82,5.82,0,0,0-8.23,0L24.82,41.48a.76.76,0,0,0-.21.43l-1.12,8.27a.79.79,0,0,0,.22.64.75.75,0,0,0,.53.22h.1l5-.68a.76.76,0,1,0-.21-1.5l-4,.54.78-5.77L32,49.7a.77.77,0,0,0,.54.22.73.73,0,0,0,.53-.22L48.13,34.63a5.83,5.83,0,0,0,0-8.23Zm-7.94,1.86,2.54,2.53L29,44.55,26.44,42ZM32.52,48.09l-2.47-2.47L43.8,31.86l2.48,2.48ZM47.34,33.25l-6.06-6.06a4.31,4.31,0,0,1,6.06,6.06Z" transform="translate(0 -0.03)"/></svg>