<svg id="Layer_1" data-name="Layer 1" xmlns="http://www.w3.org/2000/svg" width="60.1" height="60.1" viewBox="0 0 60.1 60.1"><defs><style>.cls-1{fill:#ffc000;}.cls-2{fill:#fff;}</style></defs><title>simplifya_btn</title><rect class="cls-1" width="60.1" height="60.1" rx="9.8" ry="9.8"/><path class="cls-2" d="M50.53,24.3,50.42,26a49.28,49.28,0,0,0-7.28-.8c-1.33,0-3.24-.29-4.37.6a1.43,1.43,0,0,0,.11,2.29,3.89,3.89,0,0,0,1.82.57c3,.33,9.71,1.31,10.23,5.52a21.25,21.25,0,0,0-.4-9.88Z" transform="translate(0 -0.03)"/><path class="cls-2" d="M32.31,43.45V38s12.49,2.29,12.44-.84c0,0,.33-1.66-2.58-2-2.36-.29-5.06-.63-7.17-1.8A6.18,6.18,0,0,1,31.81,28s-.8-9.09,10.11-8.7c0,0,5.49.55,7,1A21.28,21.28,0,1,0,46,44.11C44.73,44.54,41.63,45.34,32.31,43.45Z" transform="translate(0 -0.03)"/></svg>